<svg width="25" height="11" viewBox="0 0 25 11" fill="none" xmlns="http://www.w3.org/2000/svg">
<path d="M17.3898 4.41728L17.3811 3.28322L7.73061 3.52449C6.53206 3.55448 5.56423 4.51845 5.57317 5.67333C5.58211 6.82821 6.56453 7.7434 7.76313 7.71341L20.7241 7.38901C21.616 7.3667 22.452 7.01107 23.0779 6.3876C23.7039 5.76413 24.045 4.94747 24.0383 4.08804C24.0316 3.22865 23.678 2.42935 23.0426 1.83743C22.4072 1.24549 21.566 0.931811 20.6741 0.954149L4.91573 1.34835C3.71242 1.37845 2.58468 1.85824 1.74022 2.69933C0.895727 3.54045 0.43564 4.64215 0.444642 5.80159C0.453643 6.96104 0.930681 8.03932 1.78787 8.83785C2.64507 9.63637 3.77982 10.0596 4.98313 10.0295L17.431 9.71805L17.4222 8.58402L4.97433 8.89543C4.08538 8.91767 3.24715 8.60503 2.6139 8.01512C1.98064 7.4252 1.62826 6.62866 1.62158 5.77215C1.61493 4.91562 1.95484 4.10178 2.57869 3.48042C3.20254 2.85906 4.03568 2.50464 4.92454 2.48238L20.6829 2.0882C21.8752 2.05841 22.8524 2.96876 22.8613 4.11753C22.8703 5.26632 21.9075 6.22521 20.7153 6.25503L7.75438 6.57938C7.20477 6.59313 6.75427 6.17347 6.75016 5.64389C6.74605 5.11431 7.18986 4.67227 7.73947 4.65852L17.3898 4.41728Z" fill="white" fill-opacity="0.5"/>
</svg>
