<svg width="100" height="106" viewBox="0 0 100 106" fill="none" xmlns="http://www.w3.org/2000/svg">
<rect x="4" width="92" height="92" rx="46" fill="#F3F3F3"/>
<path d="M25.3506 29V19.116H28.4866C29.3173 19.116 29.9286 19.2047 30.3206 19.382C30.8059 19.5967 31.1886 19.928 31.4686 20.376C31.7486 20.824 31.8886 21.356 31.8886 21.972C31.8886 22.6067 31.7253 23.176 31.3986 23.68C31.0813 24.1747 30.6566 24.5107 30.1246 24.688V24.716C30.1993 24.8093 30.2926 24.9587 30.4046 25.164L32.5046 29H30.9366L28.8506 25.066H26.7366V29H25.3506ZM26.7366 23.862H28.7246C29.2659 23.862 29.6953 23.6987 30.0126 23.372C30.3299 23.036 30.4886 22.5927 30.4886 22.042C30.4886 21.2673 30.1806 20.7493 29.5646 20.488C29.3126 20.376 28.9159 20.32 28.3746 20.32H26.7366V23.862ZM33.6015 25.458C33.6015 24.3473 33.9375 23.4513 34.6095 22.77C35.2815 22.0887 36.1308 21.748 37.1575 21.748C38.1188 21.748 38.8702 22.0653 39.4115 22.7C39.9528 23.3253 40.2235 24.114 40.2235 25.066C40.2235 25.1873 40.2048 25.3787 40.1675 25.64H35.0155C35.0528 26.3773 35.3002 26.956 35.7575 27.376C36.2242 27.7867 36.7888 27.992 37.4515 27.992C38.2262 27.992 38.9215 27.7167 39.5375 27.166L40.1115 28.16C39.7755 28.468 39.3555 28.7153 38.8515 28.902C38.3568 29.0793 37.8622 29.168 37.3675 29.168C36.2662 29.168 35.3608 28.818 34.6515 28.118C33.9515 27.4087 33.6015 26.522 33.6015 25.458ZM35.0575 24.66H38.8515C38.8328 24.072 38.6602 23.6147 38.3335 23.288C38.0162 22.9613 37.6148 22.798 37.1295 22.798C36.5975 22.798 36.1402 22.966 35.7575 23.302C35.3842 23.6287 35.1508 24.0813 35.0575 24.66ZM42.9485 30.288C43.5832 30.6053 44.2318 30.764 44.8945 30.764C45.5572 30.764 46.0938 30.6007 46.5045 30.274C46.9245 29.9567 47.1345 29.462 47.1345 28.79V28.216L47.1765 27.768H47.1485C46.6912 28.5333 45.9818 28.916 45.0205 28.916C44.0592 28.916 43.2892 28.5753 42.7105 27.894C42.1412 27.2127 41.8565 26.3493 41.8565 25.304C41.8565 24.2587 42.1318 23.4047 42.6825 22.742C43.2332 22.0793 43.9892 21.748 44.9505 21.748C45.4265 21.748 45.8652 21.8367 46.2665 22.014C46.6678 22.1913 46.9758 22.462 47.1905 22.826H47.2325C47.2045 22.77 47.1905 22.7 47.1905 22.616V21.916H48.4925V28.706C48.4925 29.266 48.3898 29.7607 48.1845 30.19C47.9885 30.6193 47.7178 30.9553 47.3725 31.198C47.0272 31.45 46.6492 31.6367 46.2385 31.758C45.8278 31.8793 45.3892 31.94 44.9225 31.94C44.0918 31.94 43.2845 31.744 42.5005 31.352L42.9485 30.288ZM43.2285 25.262C43.2285 26.0087 43.4105 26.6107 43.7745 27.068C44.1478 27.516 44.6518 27.74 45.2865 27.74C45.8372 27.74 46.2852 27.5487 46.6305 27.166C46.9852 26.7833 47.1625 26.1627 47.1625 25.304C47.1625 23.7173 46.4952 22.924 45.1605 22.924C44.5538 22.924 44.0778 23.134 43.7325 23.554C43.3965 23.9647 43.2285 24.534 43.2285 25.262ZM50.925 26.452V21.916H52.283V26.144C52.283 26.704 52.3763 27.138 52.563 27.446C52.7497 27.754 53.0997 27.908 53.613 27.908C54.313 27.908 54.873 27.6467 55.293 27.124C55.713 26.6013 55.923 25.9713 55.923 25.234V21.916H57.267V29H55.951V28.02L56.007 27.502H55.979C55.7923 27.922 55.4657 28.3047 54.999 28.65C54.5323 28.9953 53.9817 29.168 53.347 29.168C51.7323 29.168 50.925 28.2627 50.925 26.452ZM59.7825 27.054V19.116H61.1265V26.83C61.1265 27.2127 61.1918 27.4787 61.3225 27.628C61.4625 27.768 61.6538 27.838 61.8965 27.838C61.9992 27.838 62.0785 27.8333 62.1345 27.824V29.028C61.9385 29.056 61.7892 29.07 61.6865 29.07C60.4172 29.07 59.7825 28.398 59.7825 27.054ZM63.3469 27.068C63.3469 26.5453 63.4916 26.1067 63.7809 25.752C64.0703 25.3973 64.4529 25.1453 64.9289 24.996C65.4143 24.8373 65.8623 24.73 66.2729 24.674C66.6836 24.618 67.1176 24.59 67.5749 24.59H67.9389V24.45C67.9389 23.414 67.4209 22.896 66.3849 22.896C65.7036 22.896 65.0409 23.1247 64.3969 23.582L63.8509 22.588C64.1403 22.3453 64.5323 22.1447 65.0269 21.986C65.5216 21.8273 66.0116 21.748 66.4969 21.748C67.3929 21.748 68.0836 21.986 68.5689 22.462C69.0543 22.938 69.2969 23.624 69.2969 24.52V29H68.0229V28.286L68.0649 27.726H68.0369C67.8223 28.146 67.5049 28.4913 67.0849 28.762C66.6743 29.0327 66.2169 29.168 65.7129 29.168C65.0689 29.168 64.5136 28.9767 64.0469 28.594C63.5803 28.2113 63.3469 27.7027 63.3469 27.068ZM64.7049 26.956C64.7049 27.264 64.8216 27.53 65.0549 27.754C65.2883 27.978 65.6149 28.09 66.0349 28.09C66.5949 28.09 67.0523 27.8567 67.4069 27.39C67.7616 26.9233 67.9389 26.4053 67.9389 25.836V25.57H67.5889C65.6663 25.57 64.7049 26.032 64.7049 26.956ZM71.7377 29V21.916H73.0537V23.19L73.0117 23.708H73.0397C73.2171 23.1667 73.5064 22.7187 73.9077 22.364C74.3091 22.0093 74.7711 21.832 75.2937 21.832C75.3871 21.832 75.5084 21.8413 75.6577 21.86V23.204C75.5831 23.1853 75.4524 23.176 75.2657 23.176C74.5564 23.176 74.0151 23.4653 73.6417 24.044C73.2777 24.6133 73.0957 25.2853 73.0957 26.06V29H71.7377Z" fill="#7E7E7E"/>
<path d="M14.1248 83V79.5547L17.078 79.1445L30.9959 43.1875H35.617L49.2889 79.1445L52.2147 79.5547V83H40.785V79.5547L43.7928 79.0352L41.1678 71.707H25.2264L22.5194 79.0352L25.5272 79.5547V83H14.1248ZM26.8944 67.1953H39.5272L33.6756 51.0078L33.3475 50.1055H33.1834L32.8553 51.0078L26.8944 67.1953ZM67.4298 83.5742C64.3491 83.5742 62.0067 82.8268 60.4025 81.332C58.7983 79.819 57.9963 77.6953 57.9963 74.9609C57.9963 72.1536 59.1447 69.9023 61.4416 68.207C63.7384 66.4935 66.9285 65.6367 71.0119 65.6367H76.2892V62.7383C76.2892 60.9518 75.7423 59.5664 74.6486 58.582C73.5731 57.5977 72.0509 57.1055 70.0822 57.1055C68.8426 57.1055 67.7671 57.2604 66.8556 57.5703C65.9442 57.862 65.1147 58.2721 64.3673 58.8008L63.7931 62.9297H59.6369V56.1484C62.3166 53.9609 65.8257 52.8672 70.1642 52.8672C73.7554 52.8672 76.5718 53.724 78.6134 55.4375C80.6551 57.151 81.6759 59.6029 81.6759 62.793V77.0391C81.6759 77.4219 81.6759 77.7956 81.6759 78.1602C81.6942 78.5247 81.7215 78.8893 81.758 79.2539L84.6291 79.5547V83H76.8908C76.5809 81.5052 76.3895 80.1471 76.3166 78.9258C75.2775 80.2565 73.9741 81.3685 72.4064 82.2617C70.8569 83.1367 69.1981 83.5742 67.4298 83.5742ZM68.2228 79.0625C70.0093 79.0625 71.6408 78.6341 73.1173 77.7773C74.5939 76.9206 75.6512 75.8906 76.2892 74.6875V69.3281H70.8205C68.3413 69.3281 66.4819 69.9206 65.2423 71.1055C64.0028 72.2904 63.383 73.612 63.383 75.0703C63.383 77.7318 64.9963 79.0625 68.2228 79.0625Z" fill="#D7D7D7"/>
</svg>
