<svg width="100" height="109" viewBox="0 0 100 109" fill="none" xmlns="http://www.w3.org/2000/svg">
<rect x="4" width="92" height="92" rx="46" fill="#F3F3F3"/>
<path d="M35.8312 29V19.116H39.2892C40.1478 19.116 40.8385 19.34 41.3612 19.788C41.8932 20.236 42.1592 20.852 42.1592 21.636C42.1592 22.112 42.0472 22.5367 41.8232 22.91C41.6085 23.2833 41.3098 23.568 40.9272 23.764V23.792C41.4405 23.9413 41.8418 24.2353 42.1312 24.674C42.4205 25.1127 42.5652 25.6167 42.5652 26.186C42.5652 27.082 42.2618 27.7773 41.6552 28.272C41.0485 28.7573 40.2878 29 39.3732 29H35.8312ZM37.2172 23.274H39.2892C39.7278 23.274 40.0778 23.134 40.3392 22.854C40.6098 22.574 40.7452 22.2147 40.7452 21.776C40.7452 21.3373 40.6145 20.9873 40.3532 20.726C40.0918 20.4553 39.7325 20.32 39.2752 20.32H37.2172V23.274ZM37.2172 27.796H39.4432C39.9658 27.796 40.3765 27.642 40.6752 27.334C40.9832 27.026 41.1372 26.6153 41.1372 26.102C41.1372 25.598 40.9832 25.192 40.6752 24.884C40.3672 24.576 39.9565 24.422 39.4432 24.422H37.2172V27.796ZM44.2735 25.444C44.2735 24.3893 44.6422 23.512 45.3795 22.812C46.1168 22.1027 47.0175 21.748 48.0815 21.748C49.1548 21.748 50.0602 22.098 50.7975 22.798C51.5348 23.498 51.9035 24.38 51.9035 25.444C51.9035 26.508 51.5348 27.3947 50.7975 28.104C50.0602 28.8133 49.1595 29.168 48.0955 29.168C47.0315 29.168 46.1262 28.8133 45.3795 28.104C44.6422 27.3947 44.2735 26.508 44.2735 25.444ZM45.6595 25.444C45.6595 26.1813 45.8928 26.7927 46.3595 27.278C46.8355 27.754 47.4142 27.992 48.0955 27.992C48.7675 27.992 49.3415 27.7493 49.8175 27.264C50.2935 26.7787 50.5315 26.172 50.5315 25.444C50.5315 24.716 50.2935 24.114 49.8175 23.638C49.3415 23.162 48.7675 22.924 48.0955 22.924C47.4142 22.924 46.8355 23.162 46.3595 23.638C45.8928 24.114 45.6595 24.716 45.6595 25.444ZM53.9602 27.054V19.116H55.3042V26.83C55.3042 27.2127 55.3695 27.4787 55.5002 27.628C55.6402 27.768 55.8315 27.838 56.0742 27.838C56.1769 27.838 56.2562 27.8333 56.3122 27.824V29.028C56.1162 29.056 55.9669 29.07 55.8642 29.07C54.5949 29.07 53.9602 28.398 53.9602 27.054ZM57.6786 25.458C57.6786 24.338 57.9773 23.442 58.5746 22.77C59.1719 22.0887 59.9419 21.748 60.8846 21.748C61.3419 21.748 61.7666 21.8507 62.1586 22.056C62.5506 22.252 62.8586 22.5367 63.0826 22.91H63.1106C63.0919 22.77 63.0826 22.6113 63.0826 22.434V19.116H64.4266V29H63.1386V28.286L63.1806 27.81H63.1526C62.9379 28.2113 62.6253 28.538 62.2146 28.79C61.8133 29.042 61.3419 29.168 60.8006 29.168C59.8579 29.168 59.1019 28.8273 58.5326 28.146C57.9633 27.4647 57.6786 26.5687 57.6786 25.458ZM59.0646 25.458C59.0646 26.2233 59.2466 26.8393 59.6106 27.306C59.9839 27.7633 60.4693 27.992 61.0666 27.992C61.6453 27.992 62.1306 27.7773 62.5226 27.348C62.9146 26.9187 63.1106 26.284 63.1106 25.444C63.1106 24.7533 62.9333 24.1653 62.5786 23.68C62.2333 23.1853 61.7386 22.938 61.0946 22.938C60.5159 22.938 60.0306 23.1667 59.6386 23.624C59.2559 24.072 59.0646 24.6833 59.0646 25.458Z" fill="#7E7E7E"/>
<path d="M8.665 83V77.5312L11.915 77.0625L26.3838 37.5H35.7275L50.1025 77.0625L53.3525 77.5312V83H37.8525V77.5312L41.0088 76.9688L39.0088 70.7188H23.0088L21.0088 76.9688L24.165 77.5312V83H8.665ZM25.165 64H36.8525L31.54 48.4062L31.1025 47.0312H30.915L30.4463 48.5L25.165 64ZM69.835 83.6562C66.4808 83.6562 63.8142 82.7604 61.835 80.9688C59.8558 79.1562 58.8662 76.6979 58.8662 73.5938C58.8662 70.4271 60.1475 67.8438 62.71 65.8438C65.2933 63.8438 69.085 62.8438 74.085 62.8438H78.5537V60.3438C78.5537 58.7188 78.0746 57.4062 77.1162 56.4062C76.1787 55.3854 74.7621 54.875 72.8662 54.875C71.8871 54.875 71.0017 55 70.21 55.25C69.4392 55.4792 68.7412 55.8125 68.1162 56.25L67.3975 60.7188H60.835L60.71 51.9375C62.4808 50.9375 64.3975 50.125 66.46 49.5C68.5225 48.875 70.8246 48.5625 73.3662 48.5625C77.7829 48.5625 81.2725 49.5938 83.835 51.6562C86.3975 53.7188 87.6787 56.6458 87.6787 60.4375V74.375C87.6787 74.8333 87.6787 75.2812 87.6787 75.7188C87.6996 76.1562 87.7412 76.5938 87.8037 77.0312L91.335 77.5312V83H80.0225C79.7933 82.4167 79.5642 81.7917 79.335 81.125C79.1058 80.4583 78.9392 79.7917 78.835 79.125C77.7517 80.5 76.4704 81.6042 74.9912 82.4375C73.5329 83.25 71.8142 83.6562 69.835 83.6562ZM72.2725 76.9062C73.5433 76.9062 74.7412 76.625 75.8662 76.0625C77.0121 75.4792 77.9079 74.7188 78.5537 73.7812V68.4375H74.0537C72.0537 68.4375 70.5329 68.8958 69.4912 69.8125C68.4704 70.7292 67.96 71.8333 67.96 73.125C67.96 74.3333 68.335 75.2708 69.085 75.9375C69.8558 76.5833 70.9183 76.9062 72.2725 76.9062Z" fill="#D7D7D7"/>
</svg>
