<svg width="23" height="23" viewBox="0 0 23 23" fill="none" xmlns="http://www.w3.org/2000/svg">
<g clip-path="url(#clip0)">
<path d="M10.9421 0.0133164C4.86786 0.302539 0.0743993 5.36123 0.0928264 11.4424C0.098437 13.2946 0.545582 15.0428 1.33437 16.5874L0.1233 22.4661C0.0577875 22.7841 0.34459 23.0625 0.66049 22.9877L6.4209 21.623C7.90084 22.3602 9.56313 22.786 11.3224 22.8128C17.5309 22.9076 22.7077 17.9779 22.9012 11.7718C23.1086 5.11915 17.618 -0.304619 10.9421 0.0133164ZM17.8155 17.7228C16.1286 19.4098 13.8856 20.3389 11.4998 20.3389C10.1029 20.3389 8.76548 20.0254 7.5246 19.4073L6.72239 19.0077L3.19066 19.8445L3.93407 16.2357L3.53885 15.4617C2.89467 14.2002 2.56805 12.836 2.56805 11.4071C2.56805 9.02129 3.4971 6.77836 5.18409 5.09132C6.856 3.41941 9.13556 2.47523 11.5 2.47523C13.8857 2.47528 16.1286 3.40434 17.8156 5.09126C19.5026 6.77825 20.4316 9.02118 20.4317 11.4069C20.4316 13.7714 19.4874 16.051 17.8155 17.7228Z" fill="white" fill-opacity="0.5"/>
<path d="M17.0359 13.8809L14.8264 13.2464C14.5359 13.163 14.2231 13.2454 14.0114 13.4611L13.4711 14.0116C13.2433 14.2437 12.8976 14.3183 12.596 14.1963C11.5508 13.7733 9.35208 11.8184 8.79057 10.8406C8.62858 10.5585 8.65537 10.2058 8.85427 9.94847L9.326 9.33818C9.51082 9.09907 9.54982 8.77794 9.4276 8.50154L8.498 6.39904C8.27533 5.89545 7.63182 5.74886 7.2114 6.10442C6.59473 6.62599 5.86304 7.41857 5.77409 8.29664C5.61727 9.84473 6.28119 11.7962 8.79184 14.1395C11.6923 16.8466 14.015 17.2043 15.5273 16.8379C16.3851 16.6302 17.0705 15.7973 17.5032 15.1153C17.7981 14.6503 17.5652 14.0328 17.0359 13.8809Z" fill="white" fill-opacity="0.5"/>
</g>
<defs>
<clipPath id="clip0">
<rect width="23" height="23" fill="white"/>
</clipPath>
</defs>
</svg>
