<svg width="23" height="23" viewBox="0 0 23 23" fill="none" xmlns="http://www.w3.org/2000/svg">
<g clip-path="url(#clip0)">
<path d="M10.9424 0.0133012C4.8681 0.302523 0.0746435 5.36122 0.0930705 11.4424C0.0986812 13.2945 0.545826 15.0427 1.33461 16.5874L0.123544 22.4661C0.0580316 22.7841 0.344834 23.0625 0.660734 22.9877L6.42114 21.623C7.90108 22.3602 9.56337 22.786 11.3226 22.8128C17.5311 22.9076 22.7079 17.9779 22.9014 11.7717C23.1089 5.11914 17.6183 -0.304634 10.9424 0.0133012ZM17.8158 17.7228C16.1288 19.4098 13.8858 20.3388 11.5001 20.3388C10.1031 20.3388 8.76573 20.0254 7.52484 19.4073L6.72263 19.0077L3.19091 19.8444L3.93432 16.2357L3.5391 15.4617C2.89492 14.2002 2.56829 12.836 2.56829 11.4071C2.56829 9.02127 3.49735 6.77834 5.18433 5.0913C6.85624 3.41939 9.13581 2.47521 11.5002 2.47521C13.886 2.47527 16.1289 3.40432 17.8158 5.09125C19.5028 6.77823 20.4319 9.02116 20.4319 11.4069C20.4319 13.7714 19.4877 16.0509 17.8158 17.7228Z" fill="#7AD06D"/>
<path d="M17.0359 13.8809L14.8264 13.2464C14.5359 13.163 14.2231 13.2454 14.0114 13.4611L13.4711 14.0116C13.2433 14.2437 12.8976 14.3183 12.596 14.1963C11.5508 13.7733 9.35208 11.8184 8.79057 10.8406C8.62858 10.5585 8.65537 10.2058 8.85427 9.94847L9.326 9.33817C9.51082 9.09906 9.54982 8.77793 9.4276 8.50153L8.498 6.39903C8.27533 5.89545 7.63182 5.74886 7.2114 6.10442C6.59473 6.62598 5.86304 7.41857 5.77409 8.29663C5.61727 9.84472 6.28119 11.7962 8.79184 14.1395C11.6923 16.8466 14.015 17.2043 15.5273 16.8379C16.3851 16.6302 17.0705 15.7973 17.5032 15.1153C17.7981 14.6503 17.5652 14.0328 17.0359 13.8809Z" fill="#7AD06D"/>
</g>
<defs>
<clipPath id="clip0">
<rect width="23" height="23" fill="white"/>
</clipPath>
</defs>
</svg>
