<svg width="21" height="21" viewBox="0 0 21 21" fill="none" xmlns="http://www.w3.org/2000/svg">
<path d="M19 6H21V21H19V6Z" fill="white"/>
<path d="M19 6H21V21H19V6Z" fill="white"/>
<path d="M19 6H21V21H19V6Z" fill="white"/>
<path d="M0.0664062 1.48059L1.48062 0.0663773L20.0208 18.6066L18.6066 20.0208L0.0664062 1.48059Z" fill="white"/>
<path d="M0.0664062 1.48059L1.48062 0.0663773L20.0208 18.6066L18.6066 20.0208L0.0664062 1.48059Z" fill="white"/>
<path d="M0.0664062 1.48059L1.48062 0.0663773L20.0208 18.6066L18.6066 20.0208L0.0664062 1.48059Z" fill="white"/>
<path d="M6 21L6 19L21 19L21 21L6 21Z" fill="white"/>
<path d="M6 21L6 19L21 19L21 21L6 21Z" fill="white"/>
<path d="M6 21L6 19L21 19L21 21L6 21Z" fill="white"/>
</svg>
